<?xml version="1.0" encoding="UTF-8" standalone="no"?>
<!-- Created with Inkscape (http://www.inkscape.org/) -->

<svg
   width="1023.9994"
   height="275.99921"
   viewBox="0 0 1023.9994 275.99921"
   version="1.1"
   id="svg5"
   xmlns="http://www.w3.org/2000/svg"
   xmlns:svg="http://www.w3.org/2000/svg">
  <defs
     id="defs2" />
  <g
     id="layer1"
     transform="translate(8.0325564e-5,-0.00111661)">
    <g
       aria-label="D$anD"
       transform="scale(0.99954708,1.0004531)"
       id="text236"
       style="font-size:304.249px;font-family:'DejaVu Serif';-inkscape-font-specification:'DejaVu Serif, Normal';fill:#ffffff;fill-opacity:1;stroke-width:7.07051">
      <path
         d="m 58.383638,215.41178 h 27.631988 q 43.230694,0 66.257354,-24.66081 23.17521,-24.6608 23.17521,-70.71412 0,-46.053313 -23.02666,-70.417002 Q 129.39488,25.256159 86.015626,25.256159 H 58.383638 Z M -8.0361962e-5,231.15904 V 215.41178 H 28.226145 V 25.256159 H -8.0361962e-5 V 9.360338 H 88.244012 q 57.343808,0 89.284008,29.266139 32.08876,29.266138 32.08876,81.410373 0,52.2928 -32.08876,81.70749 -32.08876,29.4147 -89.284008,29.4147 z"
         id="path900"
         style="fill:#ffffff;fill-opacity:1" />
      <path
         d="m 329.65251,221.05703 q 16.78718,-1.4856 25.55217,-9.65635 8.91354,-8.17074 8.91354,-22.28386 0,-12.77608 -8.76499,-21.68962 -8.76498,-8.91355 -25.70072,-13.51888 z M 314.79661,54.819416 q -15.30159,1.039914 -23.76946,8.913545 -8.46786,7.725072 -8.46786,20.798271 0,11.884726 7.72507,19.758358 7.87363,7.87363 24.51225,12.77608 z M 253.29315,220.46279 v -41.00231 h 16.04438 q 0.59423,20.3526 11.88472,30.75173 11.29049,10.39914 33.57436,10.84482 v -72.05116 q -34.16859,-9.50778 -47.98459,-21.83818 -13.81599,-12.47897 -13.81599,-32.980118 0,-23.769453 16.3415,-38.179683 16.3415,-14.410231 45.45908,-16.19294 V 0.0011161 h 14.8559 V 39.814949 q 15.00447,1.188473 28.82046,4.90245 13.96456,3.565418 27.18632,9.65634 V 93.296217 H 369.46635 Q 367.68364,76.063364 357.43306,66.109906 347.18248,56.156448 329.65251,54.819416 v 67.148704 q 36.54554,9.95346 51.10433,22.8781 14.70735,12.77608 14.70735,34.31714 0,24.66081 -17.23286,39.51672 -17.23285,14.85591 -48.57882,17.08429 v 40.11096 h -14.8559 v -40.11096 q -14.26168,-0.29711 -29.56326,-4.15965 -15.30159,-3.71398 -31.9402,-11.14193 z"
         id="path902"
         style="fill:#ffffff;fill-opacity:1" />
      <path
         d="m 541.79486,181.54031 v -33.42579 h -35.2085 q -20.35259,0 -30.30605,8.76498 -9.95346,8.76499 -9.95346,26.8892 0,16.49005 10.10202,26.14639 10.10202,9.65634 27.33487,9.65634 17.08429,0 27.48343,-10.54769 10.54769,-10.54769 10.54769,-27.48343 z m 27.33487,-49.0245 v 82.89597 h 24.36369 v 15.74726 h -51.69856 v -17.08429 q -9.0621,10.99337 -20.94683,16.19294 -11.88472,5.19957 -27.78055,5.19957 -26.29495,0 -41.7451,-13.96456 -15.45014,-13.96455 -15.45014,-37.734 0,-24.51225 17.67853,-38.03113 17.67853,-13.51887 49.91585,-13.51887 h 38.32824 v -10.84482 q 0,-17.97565 -10.99337,-27.780544 -10.84481,-9.953459 -30.60317,-9.953459 -16.3415,0 -25.99784,7.427954 -9.65634,7.427954 -12.03328,21.986739 H 448.05408 V 81.114373 q 14.26168,-6.090922 27.63199,-9.062104 13.51888,-3.11974 26.29496,-3.11974 32.83156,0 49.91585,16.341498 17.23285,16.192943 17.23285,47.241783 z"
         id="path904"
         style="fill:#ffffff;fill-opacity:1" />
      <path
         d="m 614.5888,231.15904 v -15.74726 h 24.66081 V 89.136563 h -26.1464 V 73.240742 h 53.48127 v 28.077668 q 7.57651,-16.044383 19.6098,-24.215132 12.18184,-8.170749 28.22622,-8.170749 26.1464,0 38.4768,15.004466 12.33041,15.004467 12.33041,46.796115 v 84.67867 h 24.36369 v 15.74726 h -75.46802 v -15.74726 h 23.6209 v -76.06225 q 0,-28.96902 -7.13084,-39.665272 -7.13083,-10.844813 -25.10648,-10.844813 -19.01556,0 -28.96902,13.964555 -9.95346,13.81599 -9.95346,40.40807 v 72.19971 h 23.76945 v 15.74726 z"
         id="path906"
         style="fill:#ffffff;fill-opacity:1" />
      <path
         d="M 966.07958,215.41178 H 938.4476 q -43.2307,0 -66.25735,-24.66081 -23.17522,-24.6608 -23.17522,-70.71412 0,-46.053313 23.02666,-70.417002 23.02666,-24.363689 66.40591,-24.363689 h 27.63198 z m 58.38372,15.74726 V 215.41178 H 996.23708 V 25.256159 h 28.22622 V 9.360338 h -88.24409 q -57.3438,0 -89.28401,29.266139 -32.08872,29.266138 -32.08872,81.410373 0,52.2928 32.08872,81.70749 32.08876,29.4147 89.28401,29.4147 z"
         id="path908"
         style="fill:#ffffff;fill-opacity:1" />
    </g>
  </g>
</svg>
